<svg version="1.2" xmlns="http://www.w3.org/2000/svg" viewBox="0 0 1000 676" width="1000" height="676">
	<title>283328-P6KJ3W-567</title>
	<style>
		.s0 { fill: #2980b9 } 
		.s1 { fill: #e4f2f7 } 
		.s2 { fill: none;stroke: #485f66;stroke-miterlimit:10;stroke-width: 2 } 
		.s3 { fill: #395156 } 
		.s4 { fill: #485f66 } 
		.s5 { fill: #6d8189 } 
		.s6 { fill: #63797f } 
		.s7 { fill: #f7bc14 } 
	</style>
	<g id="BACKGROUND">
	</g>
	<g id="OBJECTS">
		<g id="&lt;Group&gt;">
			<path id="&lt;Compound Path&gt;" class="s0" d="m308.1 64.2l-62.4 149.9h25.4v-50.4h78.8v50.4h29.9v61.7h-29.9v50.8h-78.8v-50.8h-111.8v-56.1l67.3-155.5z"/>
			<path id="&lt;Compound Path&gt;" fill-rule="evenodd" class="s0" d="m602.2 195.4c0 86-37.7 133.5-105.7 133.5-68.8 0-106.2-47.5-106.2-133.5 0-85.9 37.4-133.4 106.2-133.4 68 0 105.7 47.5 105.7 133.4zm-130 0c0 55 5.6 75.1 24.3 75.1 18.3 0 23.9-20.1 23.9-75.1 0-55.3-5.6-75.1-23.9-75.1-18.7 0-24.3 19.8-24.3 75.1z"/>
			<path id="&lt;Compound Path&gt;" class="s0" d="m769.3 64.2l-62.4 149.9h25.4v-50.4h78.9v50.4h29.9v61.7h-29.9v50.8h-78.9v-50.8h-111.8v-56.1l67.3-155.5z"/>
		</g>
		<path id="&lt;Path&gt;" class="s1" d="m496.8 606.5c0 11.1-24.1 20.2-53.8 20.2-29.7 0-53.8-9.1-53.8-20.2 0-11.2 24.1-20.3 53.8-20.3 29.7 0 53.8 9.1 53.8 20.3z"/>
		<path id="&lt;Path&gt;" class="s1" d="m613.8 606.5c0 11.1-24.1 20.2-53.8 20.2-29.7 0-53.8-9.1-53.8-20.2 0-11.2 24.1-20.3 53.8-20.3 29.7 0 53.8 9.1 53.8 20.3z"/>
		<g id="&lt;Group&gt;">
			<path id="&lt;Path&gt;" class="s2" d="m1000 485.6c0 0-223.6 34.7-256.9-59.7-32.1-91-33-162.3-53.6-180.2"/>
			<path id="&lt;Path&gt;" class="s2" d="m0 485.6c0 0 224 34.7 257.3-59.7 32.1-91 33-162.3 53.6-180.2"/>
			<g id="&lt;Group&gt;">
				<path id="&lt;Path&gt;" class="s3" d="m555.5 518.6l-9.3 61.9h-20.4l-9.3-61.9z"/>
				<path id="&lt;Path&gt;" class="s4" d="m546.3 518.6l-9.3 61.9h-11.2l-9.3-61.9z"/>
				<path id="&lt;Path&gt;" class="s3" d="m543.6 617.3l34.8-8.8-30.9-29.4h-21.6v10.1z"/>
				<path id="&lt;Path&gt;" class="s3" d="m552.3 492.1l-25.8 4.2-1.6 0.2-11.5 1.9-0.4-1.4-19.6-76.9 15.1-2 1.6-0.2 20.7-2.7 8.9-1.2z"/>
				<path id="&lt;Path&gt;" class="s4" d="m543.2 492.1l-25.8 4.2-1.6 0.2-2.8 0.5-19.6-76.9 15.1-2 1.6-0.2 20.7-2.7z"/>
				<path id="&lt;Path&gt;" class="s3" d="m513 505.9l41.9-6.7-1.6-10.1-41.9 6.7z"/>
				<path id="&lt;Path&gt;" class="s3" d="m556.9 509l-6.4 0.6-35.8 3.9-1.1-10.1 35.8-3.9 6.4-0.7z"/>
				<path id="&lt;Path&gt;" class="s4" d="m550.5 509.6l-35.8 3.9-1.1-10.1 35.8-3.9z"/>
				<path id="&lt;Path&gt;" class="s3" d="m514.8 522.7l42.3-3.4-0.8-10.2-42.3 3.4z"/>
				<path id="&lt;Path&gt;" class="s4" d="m578.4 608.5v7.6l-34.8 1.2z"/>
				<g id="&lt;Group&gt;">
					<path id="&lt;Path&gt;" class="s3" d="m536.4 589.3l-1.6 0.1-7-78.8-2.9-14.1-16.4-78.4 1.6-0.2 16.4 78.4 2.9 14.1z"/>
				</g>
				<path id="&lt;Path&gt;" class="s3" d="m478.8 518.6l-9.2 61.9h-20.5l-9.3-61.9z"/>
				<path id="&lt;Path&gt;" class="s4" d="m471.3 518.6l-9.2 61.9h-13l-9.3-61.9z"/>
				<path id="&lt;Path&gt;" class="s3" d="m451.8 617.3l-34.8-8.8 31.9-29.7 20.6 0.3v10.1z"/>
				<path id="&lt;Path&gt;" class="s3" d="m502.5 420.1l-19.9 78.3-7.6-1.2-2.5-0.4-1.6-0.3-27.2-4.4 12.4-77.1 0.2-1 31 4.1 1.6 0.2z"/>
				<path id="&lt;Path&gt;" class="s4" d="m494.7 420.1l-19.7 77.1-2.5-0.4-1.6-0.3-27.2-4.4 12.4-77.1 23.3 3.1 1.6 0.2z"/>
				<path id="&lt;Path&gt;" class="s3" d="m484 495.8l-1.7 10.1-41.8-6.7 1.6-10.1 29.4 4.7 1.5 0.3z"/>
				<path id="&lt;Path&gt;" class="s3" d="m481.7 503.4l-1 10.1-7.2-0.7-35-3.8 1.1-10.2 35 3.8z"/>
				<path id="&lt;Path&gt;" class="s4" d="m474.6 502.6l-1.1 10.2-35-3.8 1.1-10.2z"/>
				<path id="&lt;Path&gt;" class="s3" d="m480.5 522.7l-42.2-3.4 0.8-10.2 42.3 3.4z"/>
				<path id="&lt;Path&gt;" class="s4" d="m417 608.5v7.5l34.8 1.3z"/>
				<g id="&lt;Group&gt;">
					<path id="&lt;Path&gt;" class="s3" d="m467.3 518.6h1.6l-5.5 61.9h-1.6z"/>
					<path id="&lt;Path&gt;" class="s3" d="m488.9 418.3l-15.9 75.8-1.5-0.3 15.8-75.7z"/>
				</g>
				<path id="&lt;Path&gt;" class="s5" d="m497.9 91.1h-2.5v-38.9h2.5z"/>
				<path id="&lt;Path&gt;" class="s4" d="m508.7 102.2h-22.5v-2.1c0-6.2 5-11.2 11.3-11.2 6.2 0 11.2 5 11.2 11.2z"/>
				<path id="&lt;Path&gt;" class="s4" d="m605.1 283.2l11.2 16.3 57.1-39.6-11.3-16.2z"/>
				<path id="&lt;Path&gt;" class="s4" d="m538.8 289l64.1 15.7 5.8-21-73.6-31.1z"/>
				<path id="&lt;Path&gt;" class="s5" d="m594.9 293.6c0 6.4 5.2 11.6 11.7 11.6 6.4 0 11.6-5.2 11.6-11.6 0-6.4-5.2-11.6-11.6-11.6-6.5 0-11.7 5.2-11.7 11.6z"/>
				<path id="&lt;Path&gt;" class="s4" d="m599.7 293.6c0 3.8 3.1 6.8 6.9 6.8 3.8 0 6.8-3 6.8-6.8 0-3.8-3-6.9-6.8-6.9-3.8 0-6.9 3.1-6.9 6.9z"/>
				<path id="&lt;Path&gt;" class="s5" d="m672.5 218.8l-7 7.5c-8 8.4-7.6 21.7 0.8 29.7 8.4 7.9 21.7 7.6 29.7-0.9l7-7.4-8-7.6-6.8 7.2c-3.7 4-10.1 4.2-14.1 0.4-4-3.8-4.2-10.1-0.4-14.1l6.8-7.2z"/>
				<path id="&lt;Path&gt;" class="s4" d="m388.6 283.2l-11.2 16.3-57.1-39.6 11.3-16.2z"/>
				<path id="&lt;Path&gt;" class="s4" d="m454.9 289l-64.1 15.7-5.8-21 73.6-30.2z"/>
				<path id="&lt;Path&gt;" class="s6" d="m536.8 112.4v95.7c0 10.5-8.5 19-19 19h-40.2c-10.5 0-19-8.5-19-19v-91.1c0-9.7 7.3-17.7 16.8-18.8l33.7-3.8 6.6-0.8c11.2-1.2 21.1 7.5 21.1 18.8z"/>
				<path id="&lt;Path&gt;" class="s5" d="m522.3 112.4v95.7c0 10.5-8.4 19-18.9 19h-25.8c-10.5 0-19-8.5-19-19v-91.1c0-9.7 7.3-17.7 16.8-18.8l33.7-3.8c7.6 2.4 13.2 9.5 13.2 18z"/>
				<path id="&lt;Path&gt;" class="s4" d="m511.7 236.8h-30c-1 0-1.8-0.8-1.8-1.9v-6.1c0-1 0.8-1.9 1.8-1.9h30c1 0 1.8 0.9 1.8 1.9v6.1c0 1.1-0.8 1.9-1.8 1.9z"/>
				<path id="&lt;Path&gt;" class="s3" d="m509.5 246h-25.6c-1 0-1.8-0.7-1.8-1.7v-6.4c0-1 0.8-1.8 1.8-1.8h25.6c1 0 1.8 0.8 1.8 1.8v6.4c0 1-0.8 1.7-1.8 1.7z"/>
				<path id="&lt;Path&gt;" class="s4" d="m511.1 255h-28.8c-1 0-1.8-0.8-1.8-1.8v-6.2c0-1 0.8-1.8 1.8-1.8h28.8c1 0 1.8 0.8 1.8 1.8v6.2c0 1-0.8 1.8-1.8 1.8z"/>
				<path id="&lt;Path&gt;" class="s6" d="m552 276.5l-3.8 81-0.1 1.6-2.2 47.4-0.7 13.5-1 20.9h-92.2l-1-20.9-0.7-13.5-2.6-55.5-0.1-1.6-3.4-72.9c-0.7-13.4 8.9-24.6 20.9-24.6h66c12 0 21.6 11.2 20.9 24.6z"/>
				<path id="&lt;Path&gt;" class="s5" d="m532 276.5l-3.8 81-0.1 1.6-2.3 47.4-0.6 13.5-1 20.9h-72.2l-1-20.9-0.7-13.5-2.6-55.5-0.1-1.6-3.4-72.9c-0.7-13.4 8.9-24.6 20.9-24.6h46c12 0 21.5 11.2 20.9 24.6z"/>
				<path id="&lt;Path&gt;" class="s5" d="m398.8 293.6c0 6.4-5.3 11.6-11.7 11.6-6.4 0-11.6-5.2-11.6-11.6 0-6.4 5.2-11.6 11.6-11.6 6.4 0 11.7 5.2 11.7 11.6z"/>
				<path id="&lt;Path&gt;" class="s4" d="m393 293.6c0 3.2-2.6 5.9-5.9 5.9-3.2 0-5.9-2.7-5.9-5.9 0-3.3 2.7-5.9 5.9-5.9 3.3 0 5.9 2.6 5.9 5.9z"/>
				<path id="&lt;Path&gt;" class="s5" d="m321.2 218.8l7 7.5c8 8.4 7.6 21.7-0.8 29.7-8.4 7.9-21.7 7.6-29.7-0.9l-7-7.4 8-7.6 6.8 7.2c3.7 4 10.1 4.2 14.1 0.4 4-3.8 4.2-10.1 0.4-14.1l-6.8-7.2z"/>
				<path id="&lt;Path&gt;" class="s0" d="m500.3 50.7c0 2-1.7 3.7-3.7 3.7-2.1 0-3.7-1.7-3.7-3.7 0-2 1.6-3.7 3.7-3.7 2 0 3.7 1.7 3.7 3.7z"/>
				<path id="&lt;Path&gt;" class="s4" d="m522.9 193c-17.3-10.8-34.7 10.8-52 0q0-2.7 0-5.4c17.3 10.8 34.7-10.8 52 0q0 2.7 0 5.4z"/>
				<g id="&lt;Group&gt;">
					<path id="&lt;Path&gt;" class="s6" d="m497.8 152.6c0 10.1-8.3 18.4-18.5 18.4-10.1 0-18.4-8.3-18.4-18.4 0-10.2 8.3-18.5 18.4-18.5 10.2 0 18.5 8.3 18.5 18.5z"/>
					<path id="&lt;Path&gt;" class="s6" d="m533.4 152.6c0 10.1-8.2 18.4-18.4 18.4-10.2 0-18.4-8.3-18.4-18.4 0-10.2 8.2-18.5 18.4-18.5 10.2 0 18.4 8.3 18.4 18.5z"/>
					<path id="&lt;Path&gt;" class="s6" d="m515.8 171h-36.6v-36.9h36.6z"/>
				</g>
				<path id="&lt;Path&gt;" class="s7" d="m483.9 162.4h-8.4v-19.5h8.4z"/>
				<path id="&lt;Path&gt;" class="s0" d="m483 160.9h-6.6v-16.5h6.6z"/>
				<path id="&lt;Path&gt;" class="s7" d="m520.5 162.4h-8.4v-19.5h8.4z"/>
				<g id="&lt;Group&gt;">
					<path id="&lt;Path&gt;" class="s4" d="m467.4 139.9l-2.5-3.4 20.7-16.8 4.2 7.3z"/>
					<path id="&lt;Path&gt;" class="s4" d="m528.6 139.9l2.6-3.4-20.8-16.8-4.2 7.3z"/>
				</g>
				<path id="&lt;Path&gt;" class="s6" d="m532.6 326.8h-70.2v-44h70.2z"/>
				<path id="&lt;Path&gt;" class="s4" d="m525.8 322.5h-56.6v-35.5h56.6z"/>
				<path id="&lt;Path&gt;" class="s0" d="m520.7 296.4h-46.4v-2.2h46.4z"/>
				<path id="&lt;Path&gt;" class="s0" d="m513.4 302.6h-31.8v-2.3h31.8z"/>
				<path id="&lt;Path&gt;" class="s0" d="m516.9 308.1h-38.8v-2.3h38.8z"/>
				<g id="&lt;Group&gt;">
					<path id="&lt;Path&gt;" class="s4" d="m548.2 357.5l-0.1 1.6h-38.5v-19.5h-34v11.4h-27.9l-0.1-1.6h26.4v-11.4h37.3v19.5z"/>
				</g>
				<path id="&lt;Path&gt;" class="s4" d="m477.7 349.8c0 1.6-1.3 2.9-2.9 2.9-1.6 0-2.9-1.3-2.9-2.9 0-1.6 1.3-3 2.9-3 1.6 0 2.9 1.4 2.9 3z"/>
				<path id="&lt;Path&gt;" class="s4" d="m476.8 338.6c0 1.1-0.9 2-2 2-1.1 0-2-0.9-2-2 0-1.1 0.9-2 2-2 1.1 0 2 0.9 2 2z"/>
				<path id="&lt;Path&gt;" class="s4" d="m512.5 338.6c0 1.1-0.9 2-2 2-1.2 0-2-0.9-2-2 0-1.1 0.8-2 2-2 1.1 0 2 0.9 2 2z"/>
				<path id="&lt;Path&gt;" class="s4" d="m512.5 357.8c0 1.1-0.9 2-2 2-1.2 0-2-0.9-2-2 0-1.1 0.8-2 2-2 1.1 0 2 0.9 2 2z"/>
				<path id="&lt;Path&gt;" class="s0" d="m519.6 160.9h-6.6v-16.5h6.6z"/>
				<path id="&lt;Path&gt;" class="s3" d="m546.8 449.2h-97.8v-29.4h97.8z"/>
				<path id="&lt;Path&gt;" class="s4" d="m513.6 449.2h-64.6v-29.4h64.6z"/>
				<path id="&lt;Path&gt;" class="s6" d="m545.9 406.5l-0.7 13.5h-94.2l-0.7-13.5z"/>
			</g>
			<path id="&lt;Path&gt;" class="s2" d="m310.9 245.7q1.1-1 2.3-1.8c22.9-14.6 22.4 41.1 22.4 41.1"/>
			<g id="&lt;Group&gt;">
				<g id="&lt;Group&gt;">
					<path id="&lt;Path&gt;" class="s4" d="m333.2 302.1h-2.4v-8.7h2.4z"/>
					<g id="&lt;Group&gt;">
						<path id="&lt;Path&gt;" class="s4" d="m341.2 302.1h-2.4v-8.7h2.4z"/>
					</g>
				</g>
				<path id="&lt;Path&gt;" class="s4" d="m344.6 290v6.2h-17.2v-6.2c0-4.8 3.9-8.6 8.6-8.6 2.4 0 4.5 0.9 6.1 2.5q0.3 0.3 0.6 0.6c1.2 1.5 1.9 3.4 1.9 5.5z"/>
				<path id="&lt;Path&gt;" class="s5" d="m344.6 290v6.2h-14.7v-4.2c0-4.7 3.8-8.6 8.6-8.6 1.5 0 2.9 0.4 4.2 1.1 1.2 1.5 1.9 3.4 1.9 5.5z"/>
			</g>
			<path id="&lt;Path&gt;" class="s2" d="m689.5 245.7q-1.1-1-2.3-1.8c-22.9-14.6-22.4 41.1-22.4 41.1"/>
			<g id="&lt;Group&gt;">
				<path id="&lt;Path&gt;" class="s4" d="m655.8 290v6.2h17.2v-6.2c0-4.8-3.9-8.6-8.6-8.6-2.4 0-4.5 0.9-6.1 2.5q-0.3 0.3-0.6 0.6c-1.2 1.5-1.9 3.4-1.9 5.5z"/>
				<path id="&lt;Path&gt;" class="s5" d="m655.8 290v6.2h14.7v-4.2c0-4.7-3.9-8.6-8.6-8.6-1.5 0-3 0.4-4.2 1.1-1.2 1.5-1.9 3.4-1.9 5.5z"/>
			</g>
		</g>
		<g id="&lt;Group&gt;">
		</g>
		<path id="&lt;Path&gt;" class="s0" d="m328 331.9l-2.1 0.1-0.4-4.6-2.1 6.8 2.1-0.1 0.4 4.6z"/>
		<path id="&lt;Path&gt;" class="s0" d="m365 310.9l-2 2.4-5.4-4.4 5.1 9.5 2.1-2.4 5.4 4.4z"/>
		<path id="&lt;Path&gt;" class="s0" d="m356.2 333.7l-3.5 1.9-4.3-7.5 1.8 13.3 3.5-2 4.3 7.6z"/>
		<path id="&lt;Path&gt;" class="s0" d="m645.3 307.3l-1.8-1.1 2.4-4-5.7 4.3 1.8 1.1-2.4 4z"/>
		<path id="&lt;Path&gt;" class="s0" d="m687.5 312l-3 0.8-1.8-6.8-1.4 10.7 3.1-0.7 1.8 6.7z"/>
		<path id="&lt;Path&gt;" class="s0" d="m667.1 325.3l-4-0.5 0.9-8.6-6.3 11.8 4 0.5-0.9 8.6z"/>
	</g>
</svg>